<svg id="Layer_1" data-name="Layer 1" xmlns="http://www.w3.org/2000/svg" xmlns:xlink="http://www.w3.org/1999/xlink" viewBox="0 0 140 140"><defs><clipPath id="clip-path" transform="translate(2.1 2.7)"><circle cx="67.9" cy="67.3" r="65" style="fill:none"/></clipPath><clipPath id="clip-path-2" transform="translate(2.1 2.7)"><rect x="2.9" y="2.3" width="130" height="130" style="fill:none"/></clipPath></defs><title>icon2</title><g style="clip-path:url(#clip-path)"><g style="clip-path:url(#clip-path-2)"><rect width="140" height="140" style="fill:#0071bc"/></g></g><rect x="58.58" y="89.76" width="22.37" height="2.16" style="fill:#fff"/><path d="M67.67,54.31A11.19,11.19,0,1,0,78.85,65.5,11.18,11.18,0,0,0,67.67,54.31ZM64.09,57a10.89,10.89,0,0,0-1.41,2.88H60.36A9.29,9.29,0,0,1,64.09,57Zm-4.64,4.33h2.83a18.38,18.38,0,0,0-.43,3.44H58.48A9.1,9.1,0,0,1,59.45,61.35Zm0,8.29a9.12,9.12,0,0,1-1-3.4h3.37a18,18,0,0,0,.43,3.4Zm.9,1.45h2.35A10.9,10.9,0,0,0,64.13,74,9.25,9.25,0,0,1,60.33,71.09ZM67,74.58c-1.1-.4-2.07-1.69-2.74-3.49H67Zm0-4.94H63.77a17,17,0,0,1-.48-3.4H67Zm0-4.85H63.29a17.4,17.4,0,0,1,.48-3.44H67Zm0-4.89H64.21c.67-1.8,1.64-3.09,2.74-3.49Zm8,0H72.66A10.75,10.75,0,0,0,71.24,57,9.25,9.25,0,0,1,75,59.9Zm-6.59-3.49c1.1.4,2.07,1.69,2.74,3.49H68.39Zm0,4.94h3.18A16.7,16.7,0,0,1,72,64.79H68.39ZM72,66.24a17,17,0,0,1-.47,3.4H68.39v-3.4Zm-3.65,8.34V71.09h2.74C70.46,72.89,69.49,74.18,68.39,74.58ZM71.21,74a10.9,10.9,0,0,0,1.45-2.94H75A9.25,9.25,0,0,1,71.21,74Zm4.7-4.39H73.06a18.91,18.91,0,0,0,.43-3.4h3.37A9.31,9.31,0,0,1,75.91,69.64Zm1-4.85H73.49a18.38,18.38,0,0,0-.43-3.44h2.83A9.29,9.29,0,0,1,76.86,64.79Z" transform="translate(2.1 2.7)" style="fill:#fff"/><path d="M89.43,37.48h-.08l-39,6a4,4,0,0,0-3.85,4V96a4,4,0,0,0,4,4H84.86a4,4,0,0,0,4-4V94.1l.69-.1a4,4,0,0,0,3.88-4V41.44A4,4,0,0,0,89.43,37.48ZM86.67,96a1.81,1.81,0,0,1-1.81,1.81H50.47A1.81,1.81,0,0,1,48.67,96V47.46a1.81,1.81,0,0,1,1.8-1.81H84.86a1.81,1.81,0,0,1,1.81,1.81Zm4.57-6a1.81,1.81,0,0,1-1.81,1.8h-.08l-.52.08V47.46a4,4,0,0,0-4-4H64.58l24.93-3.85a1.81,1.81,0,0,1,1.73,1.8V90Z" transform="translate(2.1 2.7)" style="fill:#fff"/></svg>