<svg id="Layer_1" data-name="Layer 1" xmlns="http://www.w3.org/2000/svg" xmlns:xlink="http://www.w3.org/1999/xlink" viewBox="0 0 140 140"><defs><clipPath id="clip-path" transform="translate(2.1 2.7)"><circle cx="67.9" cy="67.3" r="65" style="fill:none"/></clipPath><clipPath id="clip-path-2" transform="translate(2.1 2.7)"><rect x="2.9" y="2.3" width="130" height="130" style="fill:none"/></clipPath></defs><title>icon3</title><path d="M62.8,74.6a10.21,10.21,0,0,0,9.4,6.8h3.2l8.8,7.8v-8c4.8-.9,8.4-5.5,8.4-11C92.6,64,88,59,82.4,59H79.7" transform="translate(2.1 2.7)" style="fill:none;stroke:#fff;stroke-width:1.5px"/><line x1="77.9" y1="71.6" x2="83.4" y2="77.1" style="fill:none;stroke:#fff;stroke-width:1.5px"/><line x1="75.2" y1="77.1" x2="83.4" y2="68.8" style="fill:none;stroke:#fff;stroke-width:1.5px"/><path d="M51.7,69.3c-5-1-8.5-5.9-8.5-11.9,0-6.7,4.8-12.1,10.7-12.1H64.7c5.9,0,10.7,5.4,10.7,12.1S70.6,69.3,64.7,69.3H61.3l-9.6,8.6Z" transform="translate(2.1 2.7)" style="fill:none;stroke:#fff;stroke-width:1.5px"/><path d="M57.4,61.6" transform="translate(2.1 2.7)" style="fill:none;stroke:#fff;stroke-linecap:round;stroke-linejoin:round;stroke-width:1.5px"/><polyline points="55.6 60.6 59.5 64.9 67.9 55.7" style="fill:none;stroke:#fff;stroke-width:1.5px"/><g style="clip-path:url(#clip-path)"><g style="clip-path:url(#clip-path-2)"><rect width="140" height="140" style="fill:#0071bc"/></g></g><path d="M101.31,62.35,82.8,43.83l-7.61,7.49A7.29,7.29,0,0,1,70.46,53a17.5,17.5,0,0,0-3,.51,21.86,21.86,0,0,0-2.11.69L55,43.83,36.49,62.35,46.07,72a5.19,5.19,0,0,0-.45.37l-1,1a3.84,3.84,0,0,0-1.12,2.72,3.8,3.8,0,0,0,1.12,2.71l.26.26a3.77,3.77,0,0,0,2.71,1.13l.2,0a3.83,3.83,0,0,0,1.11,2.91l.25.26a3.82,3.82,0,0,0,2.72,1.12l.2,0a1.36,1.36,0,0,0,0,.2,3.84,3.84,0,0,0,1.12,2.72l.26.26a3.82,3.82,0,0,0,2.71,1.12l.2,0a3.83,3.83,0,0,0,1.11,2.91l.25.26a3.86,3.86,0,0,0,5.44,0L64,91h0a4.24,4.24,0,0,0,.5-.62l4.41,4.41A4,4,0,0,0,71.74,96a4,4,0,0,0,4-4.3l.28,0a4,4,0,0,0,4-4c0-.09,0-.18,0-.28l.28,0a4,4,0,0,0,2.85-1.18,4,4,0,0,0,1.17-2.84c0-.1,0-.19,0-.28l.28,0a4,4,0,0,0,2.84-6.86l0,0ZM82.8,46.66,98.49,62.35,93.83,67,78.14,51.31Zm-27.8,0,4.66,4.65L44,67l-4.66-4.65Zm-8.75,31L46,77.39a1.86,1.86,0,0,1,0-2.6l1-1a1.85,1.85,0,0,1,2.61,0l.26.25a1.87,1.87,0,0,1,0,2.61l-1,1A1.89,1.89,0,0,1,46.25,77.65Zm4.28,4.27-.26-.25a1.85,1.85,0,0,1,0-2.61l1-1,2-2a1.85,1.85,0,0,1,2.61,0l.25.26a1.83,1.83,0,0,1,0,2.6l-1,1-2,2A1.84,1.84,0,0,1,50.53,81.92ZM54.8,86.2l-.26-.26a1.82,1.82,0,0,1-.53-1.3,1.86,1.86,0,0,1,.53-1.3l2-2a1.83,1.83,0,0,1,2.6,0l.26.25a1.85,1.85,0,0,1,0,2.61l-2,2A1.9,1.9,0,0,1,54.8,86.2Zm7.77,3.39-.89.89a1.84,1.84,0,0,1-2.6,0l-.26-.26a1.83,1.83,0,0,1,0-2.6l.89-.89a1.83,1.83,0,0,1,2.6,0l.26.25a1.85,1.85,0,0,1,0,2.61Zm23.43-9a2,2,0,0,1-2.86,0l-3.91-3.9a1,1,0,0,0-1.41,1.41L81.72,82a2,2,0,0,1-2.86,2.86L75,80.92a1,1,0,0,0-1.41,0,1,1,0,0,0,0,1.42l3.91,3.9a2,2,0,0,1,0,2.87,2,2,0,0,1-2.86,0L70.68,85.2a1,1,0,0,0-1.42,0,1,1,0,0,0,0,1.41l3.91,3.91a2,2,0,0,1-2.86,2.86l-5.14-5.15-.07,0A3.85,3.85,0,0,0,64,85.57l-.26-.26a3.82,3.82,0,0,0-2-1A3.73,3.73,0,0,0,62,82.88a3.79,3.79,0,0,0-1.13-2.72l-.25-.26a3.72,3.72,0,0,0-2.14-1,3.8,3.8,0,0,0,.23-1.26,3.84,3.84,0,0,0-1.12-2.72l-.26-.25a3.83,3.83,0,0,0-5-.34,3.76,3.76,0,0,0-1-1.71l-.26-.26a3.84,3.84,0,0,0-2.91-1.1h0l-2.77-2.8L61.07,52.73l2.37,2.39a17.92,17.92,0,0,0-4,3.36l-3.29,3.29a4,4,0,0,0,5.69,5.69l4-3.95c.93-.94,3.24.11,5.92,1.32.84.38,1.72.78,2.65,1.16a.52.52,0,0,0,.12.18L86,77.69a2,2,0,0,1,0,2.86Zm0-5.72-7.48-7.5a13.35,13.35,0,0,0,6,.08,1,1,0,0,0-.45-2c-4,.92-7.94-.87-11.44-2.45-3.35-1.52-6.25-2.83-8.16-.92l-3.95,4a2,2,0,0,1-2.86-2.86l3.29-3.3c2.2-2.24,3.3-3.36,7.12-4.44A16.21,16.21,0,0,1,70.67,55a9.28,9.28,0,0,0,5.84-2.17l.17-.15L92.42,68.41Z" transform="translate(2.1 2.7)" style="fill:#fff"/></svg>