<svg id="Layer_1" data-name="Layer 1" xmlns="http://www.w3.org/2000/svg" xmlns:xlink="http://www.w3.org/1999/xlink" viewBox="0 0 140 140"><defs><clipPath id="clip-path" transform="translate(2.1 2.7)"><circle cx="67.9" cy="67.3" r="65" style="fill:none"/></clipPath><clipPath id="clip-path-2" transform="translate(2.1 2.7)"><rect x="2.9" y="2.3" width="130" height="130" style="fill:none"/></clipPath></defs><title>icon1</title><g style="clip-path:url(#clip-path)"><g style="clip-path:url(#clip-path-2)"><rect width="140" height="140" style="fill:#0071bc"/></g><path d="M100.69,64.34,97,62.49,84.1,60.65l-1.84-1.84H93.32V55.12H91.48V57H89.63V55.12H84.1V57H80.42l-1.84-7.38-1.85-1.84-3.68,1.84H69.36l-1.84-3.68H62l-1.84-1.85-5.53-1.84-3.69,3.69H49.09l-5.53-3.69L38,45.91l1.84,3.68v5.53L38,57l3.69,1.84v1.84l-5.53,3.69v1.84h3.68V68L38,71.71H32.5l3.69,5.53,3.68,1.84L38,82.77v1.84l3.69,3.69L39.87,92h3.69v1.85h3.68V92l5.53-9.21V80.92l1.85-1.84,1.84,1.84,3.69-1.84L62,77.24h1.84l1.84,5.53,7.38-1.85,5.53-5.52L86,77.24l7.37-1.84,7.37,1.84,1.84,3.68h3.69V79.08h1.84l3.69-7.37Zm6.23,12.9h-2.54v1.84h-.71L102,75.66,93.32,73.5,86,75.34l-7.94-2-5.91,5.9-5.22,1.31L65.16,75.4H61.23l-2.18,2.17-2.23,1.11-2.2-2.2-3.69,3.68v2.1L45.4,91.47V90.14H42.85L44,87.93l-4.09-4.08V83.2l2.48-4.94-4.9-2.45-1.51-2.26h3.23l2.55-5.09V64.34H39.51l4.05-2.7v-4l-2.42-1.21.58-.57V49.16L40.4,46.54l3.16-2.1,5,3.31h3.16l3.42-3.42,4,1.34,2.08,2.08h5.15l1.84,3.69h5.26L76.37,50l.54.55L79,58.81h.68l3.58,3.58,13.21,1.88,3.31,1.66,9.61,6.41Z" transform="translate(2.1 2.7)" style="fill:#fff"/><rect x="104.63" y="85.47" width="3.69" height="1.84" style="fill:#fff"/><rect x="41.97" y="96.53" width="1.84" height="1.84" style="fill:#fff"/></g></svg>