<svg id="Layer_1" data-name="Layer 1" xmlns="http://www.w3.org/2000/svg" xmlns:xlink="http://www.w3.org/1999/xlink" viewBox="0 0 140 140"><defs><clipPath id="clip-path" transform="translate(2.1 2.7)"><circle cx="67.9" cy="67.3" r="65" style="fill:none"/></clipPath><clipPath id="clip-path-2" transform="translate(2.1 2.7)"><rect x="2.9" y="2.3" width="130" height="130" style="fill:none"/></clipPath></defs><title>icon4</title><g style="clip-path:url(#clip-path)"><g style="clip-path:url(#clip-path-2)"><rect width="140" height="140" style="fill:#0071bc"/></g></g><path d="M72.74,48.15a1.17,1.17,0,0,0-.22-.51h0L61.76,33.53a1.05,1.05,0,0,0-1-.4h0a1.05,1.05,0,0,0-.83.66l-6.38,16.6a1.08,1.08,0,0,0,0,.59l0,.05,1.77,12.21-2.48.65a3.35,3.35,0,0,0-2.41,3.7l2.14,14.58a3,3,0,0,0,1.27,2,2.82,2.82,0,0,0,2,.44l.34-.07L58.32,84l.91,6.25a1.69,1.69,0,0,0,.05.24,1.1,1.1,0,0,0,.21.69L70.24,105.3a1.08,1.08,0,0,0,1,.4h0a1.05,1.05,0,0,0,.83-.66l6.37-16.6a1,1,0,0,0,0-.64c0-.1,0-.21,0-.32ZM61.23,36.31l9.43,12.37c-.1.48-.88,1.12-1.64,1.56A15.79,15.79,0,0,1,63.49,52a15.91,15.91,0,0,1-5.81-.1,3.18,3.18,0,0,1-2-1.06ZM56.14,82a.36.36,0,0,1-.29,0,.46.46,0,0,1-.17-.32L53.53,67a.86.86,0,0,1,.57-.9l1.57-.4L58,81.51Zm14.63,20.55-7-9.15a20.74,20.74,0,0,0,11.1-1.6Zm5.59-14.74c0,.34-.44,1-1.64,1.72a15.85,15.85,0,0,1-5.54,1.75,16.07,16.07,0,0,1-5.8-.1c-1.35-.33-2-.85-2.07-1.19l-.94-6.48,2.41-.63c.31.55.72.87,1.13.81.69-.1,1.09-1.27.9-2.62s-.92-2.36-1.61-2.26c-.51.08-.86.73-.93,1.6L60,81,57.72,65.21l2.39-.63c.32.58.74.92,1.16.86.69-.1,1.09-1.28.89-2.62s-.91-2.36-1.6-2.26c-.5.07-.85.7-.93,1.55l-2.28.59L56,53.57a8.82,8.82,0,0,0,1.16.36,18.19,18.19,0,0,0,6.6.14,18,18,0,0,0,6.29-2,7.74,7.74,0,0,0,1-.68Z" transform="translate(2.1 2.7)" style="fill:#fff"/><path d="M63.59,55.32h0a.65.65,0,0,1-.52.73.53.53,0,0,0,.58.34.54.54,0,0,0-.06-1.08Z" transform="translate(2.1 2.7)" style="fill:#fff"/><path d="M63.89,57.42h0a.64.64,0,0,1-.52.73.54.54,0,0,0,1-.27A.54.54,0,0,0,63.89,57.42Z" transform="translate(2.1 2.7)" style="fill:#fff"/><path d="M64.19,59.52h0a.65.65,0,0,1-.53.73.54.54,0,1,0,.52-.73Z" transform="translate(2.1 2.7)" style="fill:#fff"/><path d="M64.5,61.61h0a.65.65,0,0,1-.52.73.54.54,0,0,0,1-.27A.54.54,0,0,0,64.5,61.61Z" transform="translate(2.1 2.7)" style="fill:#fff"/><path d="M64.8,63.71h0a.64.64,0,0,1-.52.73.54.54,0,1,0,.52-.73Z" transform="translate(2.1 2.7)" style="fill:#fff"/><path d="M65.11,65.81h0a.64.64,0,0,1-.52.73.54.54,0,0,0,1-.27A.53.53,0,0,0,65.11,65.81Z" transform="translate(2.1 2.7)" style="fill:#fff"/><path d="M65.41,67.9h0a.65.65,0,0,1-.52.73.54.54,0,0,0,.58.34.53.53,0,0,0,.46-.61A.54.54,0,0,0,65.41,67.9Z" transform="translate(2.1 2.7)" style="fill:#fff"/><path d="M65.72,70h0a.65.65,0,0,1-.53.73.54.54,0,1,0,.53-.73Z" transform="translate(2.1 2.7)" style="fill:#fff"/><path d="M66,72.1h0a.64.64,0,0,1-.52.73.54.54,0,0,0,1-.27A.53.53,0,0,0,66,72.1Z" transform="translate(2.1 2.7)" style="fill:#fff"/><path d="M66.32,74.19h0a.66.66,0,0,1-.53.73.55.55,0,0,0,1-.27A.56.56,0,0,0,66.32,74.19Z" transform="translate(2.1 2.7)" style="fill:#fff"/><path d="M66.63,76.29h0a.64.64,0,0,1-.52.73.54.54,0,0,0,1-.27A.54.54,0,0,0,66.63,76.29Z" transform="translate(2.1 2.7)" style="fill:#fff"/><path d="M66.93,78.38h0a.65.65,0,0,1-.52.73.55.55,0,0,0,1-.27A.56.56,0,0,0,66.93,78.38Z" transform="translate(2.1 2.7)" style="fill:#fff"/><path d="M67.24,80.48h0a.65.65,0,0,1-.52.73.53.53,0,0,0,.58.34.54.54,0,0,0-.06-1.08Z" transform="translate(2.1 2.7)" style="fill:#fff"/><path d="M67.54,82.58h0a.64.64,0,0,1-.52.73.56.56,0,0,0,.58.35.54.54,0,0,0-.06-1.08Z" transform="translate(2.1 2.7)" style="fill:#fff"/><path d="M67.85,84.67h0a.66.66,0,0,1-.53.73.55.55,0,0,0,1.05-.27A.55.55,0,0,0,67.85,84.67Z" transform="translate(2.1 2.7)" style="fill:#fff"/><path d="M68.15,86.77h0a.65.65,0,0,1-.52.73.54.54,0,0,0,1-.27A.54.54,0,0,0,68.15,86.77Z" transform="translate(2.1 2.7)" style="fill:#fff"/><path d="M68.45,88.87h0a.64.64,0,0,1-.52.73.54.54,0,1,0,.52-.73Z" transform="translate(2.1 2.7)" style="fill:#fff"/><path d="M57.47,55.06h0a.64.64,0,0,1-.52.73.53.53,0,0,0,.58.34.54.54,0,0,0-.06-1.07Z" transform="translate(2.1 2.7)" style="fill:#fff"/><path d="M57.77,57.15h0a.65.65,0,0,1-.52.73.54.54,0,0,0,.59.34.54.54,0,0,0-.07-1.08Z" transform="translate(2.1 2.7)" style="fill:#fff"/><path d="M58.08,59.25h0a.65.65,0,0,1-.53.73.54.54,0,0,0,1.05-.27A.54.54,0,0,0,58.08,59.25Z" transform="translate(2.1 2.7)" style="fill:#fff"/><path d="M58.38,61.35h0a.64.64,0,0,1-.52.73.54.54,0,0,0,1-.27A.53.53,0,0,0,58.38,61.35Z" transform="translate(2.1 2.7)" style="fill:#fff"/><path d="M58.68,63.44h0a.67.67,0,0,1-.53.73.55.55,0,0,0,1.05-.27A.56.56,0,0,0,58.68,63.44Z" transform="translate(2.1 2.7)" style="fill:#fff"/><path d="M59,65.54h0a.64.64,0,0,1-.52.73.54.54,0,1,0,.52-.73Z" transform="translate(2.1 2.7)" style="fill:#fff"/><path d="M59.29,67.64h0a.64.64,0,0,1-.52.73.54.54,0,0,0,.59.34.53.53,0,0,0,.45-.61A.52.52,0,0,0,59.29,67.64Z" transform="translate(2.1 2.7)" style="fill:#fff"/><path d="M59.6,69.73h0a.66.66,0,0,1-.52.73.53.53,0,0,0,.58.34.54.54,0,0,0-.06-1.08Z" transform="translate(2.1 2.7)" style="fill:#fff"/><path d="M59.9,71.83h0a.64.64,0,0,1-.52.73.54.54,0,0,0,1-.27A.54.54,0,0,0,59.9,71.83Z" transform="translate(2.1 2.7)" style="fill:#fff"/><path d="M60.21,73.92h0a.66.66,0,0,1-.53.73.55.55,0,0,0,1-.27A.55.55,0,0,0,60.21,73.92Z" transform="translate(2.1 2.7)" style="fill:#fff"/><path d="M60.51,76h0a.65.65,0,0,1-.52.73.54.54,0,0,0,1-.27A.54.54,0,0,0,60.51,76Z" transform="translate(2.1 2.7)" style="fill:#fff"/><path d="M60.81,78.12h0a.64.64,0,0,1-.52.73.55.55,0,0,0,.59.35.54.54,0,0,0,.45-.62A.54.54,0,0,0,60.81,78.12Z" transform="translate(2.1 2.7)" style="fill:#fff"/><path d="M61.12,80.22h0a.64.64,0,0,1-.52.73.54.54,0,0,0,1-.27A.53.53,0,0,0,61.12,80.22Z" transform="translate(2.1 2.7)" style="fill:#fff"/><path d="M61.42,82.31h0a.65.65,0,0,1-.52.73.54.54,0,0,0,.59.34.54.54,0,0,0-.07-1.08Z" transform="translate(2.1 2.7)" style="fill:#fff"/><path d="M61.73,84.41h0a.65.65,0,0,1-.53.73.56.56,0,0,0,.59.35.55.55,0,0,0,.46-.62A.54.54,0,0,0,61.73,84.41Z" transform="translate(2.1 2.7)" style="fill:#fff"/><path d="M62,86.5h0a.65.65,0,0,1-.52.73.54.54,0,0,0,.58.34.53.53,0,0,0,.46-.61A.54.54,0,0,0,62,86.5Z" transform="translate(2.1 2.7)" style="fill:#fff"/><path d="M62.33,88.6h0a.64.64,0,0,1-.52.72.54.54,0,0,0,.59.35.54.54,0,0,0-.07-1.08Z" transform="translate(2.1 2.7)" style="fill:#fff"/><path d="M66,54.91h0a.64.64,0,0,1-.52.73.54.54,0,0,0,.58.35.55.55,0,0,0,.46-.62A.54.54,0,0,0,66,54.91Z" transform="translate(2.1 2.7)" style="fill:#fff"/><path d="M66.34,57h0a.65.65,0,0,1-.52.73.54.54,0,0,0,1-.27A.54.54,0,0,0,66.34,57Z" transform="translate(2.1 2.7)" style="fill:#fff"/><path d="M66.65,59.1h0a.66.66,0,0,1-.53.73.55.55,0,0,0,1-.28A.55.55,0,0,0,66.65,59.1Z" transform="translate(2.1 2.7)" style="fill:#fff"/><path d="M67,61.2h0a.64.64,0,0,1-.52.73.56.56,0,0,0,.58.35.55.55,0,0,0,.46-.62A.54.54,0,0,0,67,61.2Z" transform="translate(2.1 2.7)" style="fill:#fff"/><path d="M67.25,63.29h0a.65.65,0,0,1-.52.73.54.54,0,0,0,.59.34.54.54,0,0,0-.07-1.08Z" transform="translate(2.1 2.7)" style="fill:#fff"/><path d="M67.56,65.39h0a.65.65,0,0,1-.52.73.53.53,0,0,0,.58.34.54.54,0,0,0-.06-1.08Z" transform="translate(2.1 2.7)" style="fill:#fff"/><path d="M67.86,67.49h0a.64.64,0,0,1-.52.73.56.56,0,0,0,.58.35.54.54,0,0,0,.46-.62A.54.54,0,0,0,67.86,67.49Z" transform="translate(2.1 2.7)" style="fill:#fff"/><path d="M68.17,69.58h0a.66.66,0,0,1-.53.73.55.55,0,1,0,.53-.74Z" transform="translate(2.1 2.7)" style="fill:#fff"/><path d="M68.47,71.68h0a.66.66,0,0,1-.52.74.54.54,0,0,0,1-.28A.54.54,0,0,0,68.47,71.68Z" transform="translate(2.1 2.7)" style="fill:#fff"/><path d="M68.77,73.78h0a.64.64,0,0,1-.52.73.54.54,0,1,0,.52-.73Z" transform="translate(2.1 2.7)" style="fill:#fff"/><path d="M69.08,75.87h0a.65.65,0,0,1-.52.73.54.54,0,0,0,1-.27A.54.54,0,0,0,69.08,75.87Z" transform="translate(2.1 2.7)" style="fill:#fff"/><path d="M69.38,78h0a.64.64,0,0,1-.52.73.54.54,0,1,0,.52-.73Z" transform="translate(2.1 2.7)" style="fill:#fff"/><path d="M69.69,80.06h0a.65.65,0,0,1-.52.73.53.53,0,0,0,.58.34.53.53,0,0,0,.46-.61A.54.54,0,0,0,69.69,80.06Z" transform="translate(2.1 2.7)" style="fill:#fff"/><path d="M70,82.16h0a.65.65,0,0,1-.52.73.54.54,0,0,0,1-.28A.54.54,0,0,0,70,82.16Z" transform="translate(2.1 2.7)" style="fill:#fff"/><path d="M70.29,84.26h0a.65.65,0,0,1-.53.73.55.55,0,0,0,.59.35.54.54,0,0,0-.07-1.08Z" transform="translate(2.1 2.7)" style="fill:#fff"/><path d="M70.6,86.35h0a.64.64,0,0,1-.52.73.54.54,0,0,0,1-.27A.54.54,0,0,0,70.6,86.35Z" transform="translate(2.1 2.7)" style="fill:#fff"/><path d="M70.9,88.45h0a.65.65,0,0,1-.52.73.55.55,0,0,0,1.05-.27A.56.56,0,0,0,70.9,88.45Z" transform="translate(2.1 2.7)" style="fill:#fff"/><path d="M68.28,54.28h0a.65.65,0,0,1-.52.73.53.53,0,0,0,.58.34.54.54,0,0,0-.06-1.08Z" transform="translate(2.1 2.7)" style="fill:#fff"/><path d="M68.58,56.38h0a.64.64,0,0,1-.52.73.54.54,0,0,0,1-.27A.54.54,0,0,0,68.58,56.38Z" transform="translate(2.1 2.7)" style="fill:#fff"/><path d="M68.89,58.48h0a.64.64,0,0,1-.52.73.53.53,0,0,0,.58.34.54.54,0,0,0,.46-.61A.53.53,0,0,0,68.89,58.48Z" transform="translate(2.1 2.7)" style="fill:#fff"/><path d="M69.19,60.57h0a.65.65,0,0,1-.52.73.54.54,0,0,0,.58.34.53.53,0,0,0,.46-.61A.54.54,0,0,0,69.19,60.57Z" transform="translate(2.1 2.7)" style="fill:#fff"/><path d="M69.5,62.67h0a.65.65,0,0,1-.53.73.55.55,0,0,0,.59.35.54.54,0,0,0-.06-1.08Z" transform="translate(2.1 2.7)" style="fill:#fff"/><path d="M69.8,64.76h0a.65.65,0,0,1-.52.73.54.54,0,0,0,1-.27A.54.54,0,0,0,69.8,64.76Z" transform="translate(2.1 2.7)" style="fill:#fff"/><path d="M70.1,66.86h0a.65.65,0,0,1-.52.73.54.54,0,0,0,.59.34.54.54,0,0,0-.07-1.08Z" transform="translate(2.1 2.7)" style="fill:#fff"/><path d="M70.41,69h0a.64.64,0,0,1-.52.73.53.53,0,0,0,.58.35A.54.54,0,0,0,70.41,69Z" transform="translate(2.1 2.7)" style="fill:#fff"/><path d="M70.71,71.05h0a.64.64,0,0,1-.52.73.54.54,0,0,0,.58.34.53.53,0,0,0,.46-.61A.54.54,0,0,0,70.71,71.05Z" transform="translate(2.1 2.7)" style="fill:#fff"/><path d="M71,73.15h0a.66.66,0,0,1-.53.73.55.55,0,0,0,1.05-.28A.55.55,0,0,0,71,73.15Z" transform="translate(2.1 2.7)" style="fill:#fff"/><path d="M71.32,75.25h0a.64.64,0,0,1-.52.73.56.56,0,0,0,.58.35.55.55,0,0,0,.46-.62A.54.54,0,0,0,71.32,75.25Z" transform="translate(2.1 2.7)" style="fill:#fff"/><path d="M71.62,77.34h0a.66.66,0,0,1-.53.73.55.55,0,0,0,1.05-.27A.56.56,0,0,0,71.62,77.34Z" transform="translate(2.1 2.7)" style="fill:#fff"/><path d="M71.93,79.44h0a.64.64,0,0,1-.52.72.53.53,0,0,0,.58.35.54.54,0,0,0-.06-1.08Z" transform="translate(2.1 2.7)" style="fill:#fff"/><path d="M72.23,81.54h0a.64.64,0,0,1-.52.73.56.56,0,0,0,.59.35.54.54,0,0,0,.45-.62A.52.52,0,0,0,72.23,81.54Z" transform="translate(2.1 2.7)" style="fill:#fff"/><path d="M72.54,83.63h0a.66.66,0,0,1-.52.73.53.53,0,0,0,.58.34.54.54,0,0,0-.06-1.08Z" transform="translate(2.1 2.7)" style="fill:#fff"/><path d="M72.84,85.73h0a.64.64,0,0,1-.52.72.54.54,0,1,0,.52-.73Z" transform="translate(2.1 2.7)" style="fill:#fff"/><path d="M73.14,87.83h0a.65.65,0,0,1-.53.73.55.55,0,0,0,1-.27A.54.54,0,0,0,73.14,87.83Z" transform="translate(2.1 2.7)" style="fill:#fff"/><path d="M70.29,53.33h0a.65.65,0,0,1-.52.73.54.54,0,0,0,.59.34.54.54,0,0,0-.07-1.08Z" transform="translate(2.1 2.7)" style="fill:#fff"/><path d="M70.6,55.43h0a.64.64,0,0,1-.52.73.53.53,0,0,0,.58.35.54.54,0,0,0-.06-1.08Z" transform="translate(2.1 2.7)" style="fill:#fff"/><path d="M70.9,57.53h0a.64.64,0,0,1-.52.73.54.54,0,0,0,.58.34.54.54,0,0,0-.06-1.07Z" transform="translate(2.1 2.7)" style="fill:#fff"/><path d="M71.2,59.62h0a.66.66,0,0,1-.53.73.55.55,0,0,0,1-.27A.56.56,0,0,0,71.2,59.62Z" transform="translate(2.1 2.7)" style="fill:#fff"/><path d="M71.51,61.72h0a.64.64,0,0,1-.52.73.54.54,0,1,0,.52-.73Z" transform="translate(2.1 2.7)" style="fill:#fff"/><path d="M71.81,63.82h0a.64.64,0,0,1-.52.73.55.55,0,0,0,1-.27A.54.54,0,0,0,71.81,63.82Z" transform="translate(2.1 2.7)" style="fill:#fff"/><path d="M72.12,65.91h0a.65.65,0,0,1-.52.73.53.53,0,0,0,.58.34.54.54,0,0,0-.06-1.08Z" transform="translate(2.1 2.7)" style="fill:#fff"/><path d="M72.42,68h0a.64.64,0,0,1-.52.73.55.55,0,0,0,.59.35.54.54,0,0,0,.45-.62A.53.53,0,0,0,72.42,68Z" transform="translate(2.1 2.7)" style="fill:#fff"/><path d="M72.73,70.11h0a.65.65,0,0,1-.52.73.53.53,0,0,0,.58.34.54.54,0,0,0-.06-1.07Z" transform="translate(2.1 2.7)" style="fill:#fff"/><path d="M73,72.2h0a.65.65,0,0,1-.52.73.54.54,0,0,0,1-.28A.54.54,0,0,0,73,72.2Z" transform="translate(2.1 2.7)" style="fill:#fff"/><path d="M73.33,74.3h0a.65.65,0,0,1-.53.73.56.56,0,0,0,.59.35.56.56,0,0,0,.46-.62A.55.55,0,0,0,73.33,74.3Z" transform="translate(2.1 2.7)" style="fill:#fff"/><path d="M73.64,76.39h0a.65.65,0,0,1-.52.73.54.54,0,0,0,1-.27A.54.54,0,0,0,73.64,76.39Z" transform="translate(2.1 2.7)" style="fill:#fff"/><path d="M73.94,78.49h0a.64.64,0,0,1-.52.72.54.54,0,0,0,.59.35.54.54,0,0,0-.07-1.08Z" transform="translate(2.1 2.7)" style="fill:#fff"/><path d="M74.25,80.59h0a.64.64,0,0,1-.52.73.54.54,0,0,0,.58.35.55.55,0,0,0,.46-.62A.54.54,0,0,0,74.25,80.59Z" transform="translate(2.1 2.7)" style="fill:#fff"/><path d="M74.55,82.68h0a.65.65,0,0,1-.52.73.54.54,0,0,0,.58.34.54.54,0,0,0-.06-1.08Z" transform="translate(2.1 2.7)" style="fill:#fff"/><path d="M74.86,84.78h0a.64.64,0,0,1-.53.72.54.54,0,1,0,.53-.73Z" transform="translate(2.1 2.7)" style="fill:#fff"/><path d="M75.16,86.88h0a.64.64,0,0,1-.52.73.56.56,0,0,0,.58.35.54.54,0,0,0,.46-.62A.54.54,0,0,0,75.16,86.88Z" transform="translate(2.1 2.7)" style="fill:#fff"/><path d="M93.8,61.31v0c.06-.73-.69-1.38-1.71-1.5l-.69-.08,2.29-16.33a.64.64,0,1,0-1.26-.17l-2.3,16.36-.69-.08,2-16.38a.64.64,0,0,0-.56-.71.65.65,0,0,0-.71.57l-2,16.38-.69-.08,1.7-16.42a.64.64,0,0,0-1.27-.14l-1.7,16.42-.68-.08,1.41-16.46a.64.64,0,0,0-.58-.69.63.63,0,0,0-.7.58L84.25,58.9l-.78-.08a2,2,0,0,0-1.5.35,1.11,1.11,0,0,0-.41.74l-.15,1.33v.17l-2,17.73v0c-.06.73.66,1.38,1.68,1.49l8.62,1h0a2.12,2.12,0,0,0,1.52-.36,1.11,1.11,0,0,0,.41-.74l2-17.82h0s0-.05,0-.07Zm-3.39,19a1,1,0,0,1-.57.08h0l-8.62-1a1,1,0,0,1-.59-.23l1.88-16.58a3.4,3.4,0,0,0,.59.14l8.62,1a2.71,2.71,0,0,0,.57,0Zm2-17.89a1.12,1.12,0,0,1-.58.07l-8.62-1a1.07,1.07,0,0,1-.6-.24l.13-1.2a1.1,1.1,0,0,1,.57-.07l.8.1-.06.76,1.27.15.07-.77.66.07-.08.77,1.27.14.08-.76.67.07-.09.77,1.27.14.09-.76.67.07-.1.76,1.27.15.1-.76L92,61a1,1,0,0,1,.61.24Z" transform="translate(2.1 2.7)" style="fill:#fff"/></svg>